<svg width="24" height="24" viewBox="0 0 24 24" fill="none" xmlns="http://www.w3.org/2000/svg">
<path fill-rule="evenodd" clip-rule="evenodd" d="M21.1034 6.06939C20.4205 6.37075 19.6878 6.57534 18.9192 6.66658C19.7044 6.19657 20.3071 5.45009 20.5891 4.56261C19.8537 4.99944 19.0409 5.31462 18.1755 5.48603C17.4816 4.74784 16.4945 4.28613 15.3997 4.28613C13.3013 4.28613 11.5982 5.98921 11.5982 8.08765C11.5982 8.38625 11.6314 8.67655 11.6977 8.95302C8.53761 8.79543 5.73692 7.28035 3.86242 4.98008C3.53618 5.54133 3.34818 6.19381 3.34818 6.89052C3.34818 8.2093 4.02001 9.37326 5.04021 10.0534C4.41814 10.034 3.83201 9.86262 3.31777 9.57785C3.31777 9.59444 3.31777 9.60826 3.31777 9.62485C3.31777 11.4662 4.62826 13.0034 6.36728 13.3517C6.04934 13.4374 5.71204 13.4844 5.36644 13.4844C5.12038 13.4844 4.88261 13.4596 4.65038 13.4153C5.13421 14.9249 6.5387 16.0252 8.20031 16.0556C6.89811 17.0758 5.26138 17.6841 3.47812 17.6841C3.17124 17.6841 2.86988 17.6647 2.57129 17.6315C4.25225 18.7098 6.25116 19.3402 8.39937 19.3402C15.3914 19.3402 19.215 13.548 19.215 8.52448C19.215 8.3586 19.2123 8.19548 19.204 8.03236C19.9477 7.496 20.5919 6.82693 21.1006 6.06386L21.1034 6.06939Z" fill="white"/>
</svg>
